<?xml version="1.0" encoding="UTF-8"?>
<!DOCTYPE svg PUBLIC "-//W3C//DTD SVG 1.1//EN" "http://www.w3.org/Graphics/SVG/1.1/DTD/svg11.dtd">
<svg xmlns="http://www.w3.org/2000/svg" version="1.1" width="128px" height="128px" style="shape-rendering:geometricPrecision; text-rendering:geometricPrecision; image-rendering:optimizeQuality; fill-rule:evenodd; clip-rule:evenodd" xmlns:xlink="http://www.w3.org/1999/xlink">
<g><path style="opacity:0.933" fill="#f1f3f2" d="M 110.5,77.5 C 109.307,77.0296 108.64,76.0296 108.5,74.5C 109.465,70.1907 109.631,65.8574 109,61.5C 108.617,60.944 108.117,60.6107 107.5,60.5C 107.5,59.5 107.5,58.5 107.5,57.5C 100.087,30.6042 82.4204,18.4375 54.5,21C 52.5643,21.813 50.5643,22.313 48.5,22.5C 41.0759,23.2133 35.0759,26.5466 30.5,32.5C 28.2733,34.6068 26.2733,36.9401 24.5,39.5C 23.6618,39.1583 23.3284,38.4916 23.5,37.5C 38.2727,17.4103 57.606,11.2436 81.5,19C 106.477,30.788 116.144,50.288 110.5,77.5 Z"/></g>
<g><path style="opacity:1" fill="#c1c7ca" d="M 48.5,22.5 C 47.8333,23.1667 47.1667,23.8333 46.5,24.5C 41.8704,25.9571 37.8704,28.4571 34.5,32C 33.2068,32.49 31.8734,32.6567 30.5,32.5C 35.0759,26.5466 41.0759,23.2133 48.5,22.5 Z"/></g>
<g><path style="opacity:1" fill="#222f49" d="M 56.5,23.5 C 76.2326,20.6996 90.8992,28.0329 100.5,45.5C 98.5,45.5 96.5,45.5 94.5,45.5C 94.6107,44.8826 94.944,44.3826 95.5,44C 94.1068,42.8289 93.2735,41.3289 93,39.5C 92.8898,41.8483 91.7231,43.3483 89.5,44C 91.0267,45.0319 92.36,46.1986 93.5,47.5C 93.0773,49.7812 93.744,51.4479 95.5,52.5C 95.5,53.1667 95.5,53.8333 95.5,54.5C 94.5041,54.5858 93.6708,54.2524 93,53.5C 92.8227,57.3563 92.3227,61.023 91.5,64.5C 92.2109,58.305 90.5443,52.9716 86.5,48.5C 84.5407,44.8739 81.874,41.8739 78.5,39.5C 78.5858,38.5041 78.2524,37.6708 77.5,37C 75.2852,36.8295 73.2852,36.1628 71.5,35C 67.9733,34.1925 64.6399,34.3592 61.5,35.5C 57.691,36.0352 54.0244,37.0352 50.5,38.5C 53.6496,35.0687 57.6496,33.4021 62.5,33.5C 62.5,32.1667 62.5,30.8333 62.5,29.5C 63.2216,29.9175 63.7216,30.5842 64,31.5C 65.0736,30.3816 66.2402,29.3816 67.5,28.5C 65.8035,27.6364 64.6368,26.3031 64,24.5C 63.7216,25.4158 63.2216,26.0825 62.5,26.5C 62.5,25.5 62.5,24.5 62.5,23.5C 60.5,23.5 58.5,23.5 56.5,23.5 Z"/></g>
<g><path style="opacity:1" fill="#919ca8" d="M 107.5,57.5 C 106.896,61.7501 106.229,65.4167 105.5,68.5C 106.238,60.1766 104.571,52.51 100.5,45.5C 90.8992,28.0329 76.2326,20.6996 56.5,23.5C 53.4021,23.7556 50.4021,24.4222 47.5,25.5C 46.8333,25.5 46.5,25.1667 46.5,24.5C 47.1667,23.8333 47.8333,23.1667 48.5,22.5C 50.5643,22.313 52.5643,21.813 54.5,21C 82.4204,18.4375 100.087,30.6042 107.5,57.5 Z"/></g>
<g><path style="opacity:1" fill="#bdc1c3" d="M 62.5,29.5 C 61.325,29.719 60.325,29.3857 59.5,28.5C 60.6016,27.8243 61.6016,27.1577 62.5,26.5C 63.2216,26.0825 63.7216,25.4158 64,24.5C 64.6368,26.3031 65.8035,27.6364 67.5,28.5C 66.2402,29.3816 65.0736,30.3816 64,31.5C 63.7216,30.5842 63.2216,29.9175 62.5,29.5 Z"/></g>
<g><path style="opacity:1" fill="#bcc2c7" d="M 75.5,28.5 C 77.8519,29.5426 78.0185,30.8759 76,32.5C 75.2496,31.8742 74.4162,31.3742 73.5,31C 74.3805,30.2917 75.0472,29.4584 75.5,28.5 Z"/></g>
<g><path style="opacity:1" fill="#121b32" d="M 56.5,23.5 C 58.5,23.5 60.5,23.5 62.5,23.5C 62.5,24.5 62.5,25.5 62.5,26.5C 61.6016,27.1577 60.6016,27.8243 59.5,28.5C 60.325,29.3857 61.325,29.719 62.5,29.5C 62.5,30.8333 62.5,32.1667 62.5,33.5C 57.6496,33.4021 53.6496,35.0687 50.5,38.5C 48.4687,40.5224 46.1354,42.1891 43.5,43.5C 42.8333,42.1667 42.1667,40.8333 41.5,39.5C 42.9616,38.5423 44.2949,37.3756 45.5,36C 44,35.1667 42.8333,34 42,32.5C 41.7216,33.4158 41.2216,34.0825 40.5,34.5C 40.0679,33.2905 39.4013,32.2905 38.5,31.5C 41.328,29.2519 44.328,27.2519 47.5,25.5C 50.4021,24.4222 53.4021,23.7556 56.5,23.5 Z"/></g>
<g><path style="opacity:1" fill="#aaaeb4" d="M 49.5,29.5 C 53.1611,29.4257 53.8277,30.4257 51.5,32.5C 49.1286,32.1084 48.4619,31.1084 49.5,29.5 Z"/></g>
<g><path style="opacity:1" fill="#d1d4d3" d="M 41.5,39.5 C 41.4257,37.5891 40.4257,36.4224 38.5,36C 39.4158,35.7216 40.0825,35.2216 40.5,34.5C 41.2216,34.0825 41.7216,33.4158 42,32.5C 42.8333,34 44,35.1667 45.5,36C 44.2949,37.3756 42.9616,38.5423 41.5,39.5 Z"/></g>
<g><path style="opacity:1" fill="#485a77" d="M 61.5,35.5 C 64.6399,34.3592 67.9733,34.1925 71.5,35C 73.2852,36.1628 75.2852,36.8295 77.5,37C 78.2524,37.6708 78.5858,38.5041 78.5,39.5C 73.1308,36.9331 67.4641,35.5998 61.5,35.5 Z"/></g>
<g><path style="opacity:1" fill="#d7dad8" d="M 84.5,33.5 C 88.9396,34.7868 89.2729,36.4535 85.5,38.5C 84.2997,37.4688 82.9663,36.6355 81.5,36C 82.9423,35.6232 83.9423,34.7899 84.5,33.5 Z"/></g>
<g><path style="opacity:1" fill="#e0e4e7" d="M 61.5,35.5 C 67.4641,35.5998 73.1308,36.9331 78.5,39.5C 81.874,41.8739 84.5407,44.8739 86.5,48.5C 83.7746,47.287 81.4412,45.4536 79.5,43C 78.5509,42.3828 77.7175,42.5494 77,43.5C 75.5437,41.0097 73.377,39.343 70.5,38.5C 69.8933,38.6236 69.56,38.9569 69.5,39.5C 68.5,39.5 67.5,39.5 66.5,39.5C 66.9175,38.7784 67.5842,38.2784 68.5,38C 66.2028,37.9822 63.8695,38.1489 61.5,38.5C 55.6664,37.9003 50.6664,39.9003 46.5,44.5C 43.7997,46.2344 41.7997,48.5677 40.5,51.5C 39.8333,51.5 39.5,51.1667 39.5,50.5C 40.8333,48.1667 42.1667,45.8333 43.5,43.5C 46.1354,42.1891 48.4687,40.5224 50.5,38.5C 54.0244,37.0352 57.691,36.0352 61.5,35.5 Z"/></g>
<g><path style="opacity:0.973" fill="#a9b6c2" d="M 23.5,37.5 C 23.3284,38.4916 23.6618,39.1583 24.5,39.5C 23.8466,40.8068 23.1799,42.1401 22.5,43.5C 21.7435,44.7733 21.0768,44.7733 20.5,43.5C 20.9925,41.1815 21.9925,39.1815 23.5,37.5 Z"/></g>
<g><path style="opacity:1" fill="#2c3851" d="M 61.5,38.5 C 59.847,38.6596 58.5137,39.3263 57.5,40.5C 54.2099,42.1236 51.5433,44.4569 49.5,47.5C 48.5,46.5 47.5,45.5 46.5,44.5C 50.6664,39.9003 55.6664,37.9003 61.5,38.5 Z"/></g>
<g><path style="opacity:1" fill="#d3d6d4" d="M 94.5,45.5 C 93.6618,45.8417 93.3284,46.5084 93.5,47.5C 92.36,46.1986 91.0267,45.0319 89.5,44C 91.7231,43.3483 92.8898,41.8483 93,39.5C 93.2735,41.3289 94.1068,42.8289 95.5,44C 94.944,44.3826 94.6107,44.8826 94.5,45.5 Z"/></g>
<g><path style="opacity:1" fill="#32455d" d="M 60.5,42.5 C 61.1667,42.5 61.5,42.8333 61.5,43.5C 60.5029,44.7125 59.5029,44.5458 58.5,43C 59.0944,42.5357 59.7611,42.369 60.5,42.5 Z"/></g>
<g><path style="opacity:1" fill="#768293" d="M 46.5,24.5 C 46.5,25.1667 46.8333,25.5 47.5,25.5C 44.328,27.2519 41.328,29.2519 38.5,31.5C 32.6387,36.2465 27.9721,41.9132 24.5,48.5C 24.6495,47.448 24.4828,46.448 24,45.5C 23.3333,46.8333 22.6667,48.1667 22,49.5C 21.6667,48.8333 21.3333,48.1667 21,47.5C 20.0228,48.7736 19.1894,48.7736 18.5,47.5C 18.6596,45.847 19.3263,44.5137 20.5,43.5C 21.0768,44.7733 21.7435,44.7733 22.5,43.5C 23.1799,42.1401 23.8466,40.8068 24.5,39.5C 26.2733,36.9401 28.2733,34.6068 30.5,32.5C 31.8734,32.6567 33.2068,32.49 34.5,32C 37.8704,28.4571 41.8704,25.9571 46.5,24.5 Z"/></g>
<g><path style="opacity:1" fill="#cbd0d7" d="M 86.5,48.5 C 90.5443,52.9716 92.2109,58.305 91.5,64.5C 91.7678,66.099 91.4345,67.4324 90.5,68.5C 90.6653,64.8183 90.4986,61.1516 90,57.5C 87.7186,54.9367 86.5519,51.9367 86.5,48.5 Z"/></g>
<g><path style="opacity:1" fill="#c7cdcf" d="M 57.5,40.5 C 58.5,41.1667 59.5,41.8333 60.5,42.5C 59.7611,42.369 59.0944,42.5357 58.5,43C 59.5029,44.5458 60.5029,44.7125 61.5,43.5C 62.0431,43.56 62.3764,43.8933 62.5,44.5C 61.1667,45.1667 59.8333,45.8333 58.5,46.5C 60.8523,47.9847 63.1856,49.318 65.5,50.5C 65.5,51.5 65.5,52.5 65.5,53.5C 64.448,53.3505 63.448,53.5172 62.5,54C 64.8987,54.7311 67.0653,55.8978 69,57.5C 70.9825,58.7112 72.8159,58.7112 74.5,57.5C 75.865,59.8598 77.865,61.5265 80.5,62.5C 82.1765,61.8166 82.8432,60.4832 82.5,58.5C 83.3138,60.631 83.8138,62.9644 84,65.5C 84.3333,64.8333 84.6667,64.1667 85,63.5C 85.6667,64.8333 86.6667,65.8333 88,66.5C 88.0873,69.7067 88.254,72.7067 88.5,75.5C 87.7515,77.3325 86.7515,78.9991 85.5,80.5C 84.7611,80.631 84.0944,80.4643 83.5,80C 84.3802,78.6439 84.7135,77.1439 84.5,75.5C 84.3843,70.3894 81.7176,68.0561 76.5,68.5C 74.4458,68.6347 72.7791,67.968 71.5,66.5C 71.44,65.9569 71.1067,65.6236 70.5,65.5C 69.2267,66.2565 69.2267,66.9232 70.5,67.5C 71.8502,68.6499 71.6836,69.3166 70,69.5C 65.9435,67.1106 62.9435,63.7772 61,59.5C 59.5867,57.5864 57.7534,56.2531 55.5,55.5C 54.8281,54.0508 54.1614,52.7175 53.5,51.5C 50.1509,50.1202 48.3175,51.4536 48,55.5C 47.5357,54.9056 47.369,54.2389 47.5,53.5C 47.9707,51.4214 48.6373,49.4214 49.5,47.5C 51.5433,44.4569 54.2099,42.1236 57.5,40.5 Z"/></g>
<g><path style="opacity:1" fill="#f2f1eb" d="M 66.5,39.5 C 67.7399,41.9845 68.7399,41.9845 69.5,39.5C 69.56,38.9569 69.8933,38.6236 70.5,38.5C 73.377,39.343 75.5437,41.0097 77,43.5C 77.7175,42.5494 78.5509,42.3828 79.5,43C 81.4412,45.4536 83.7746,47.287 86.5,48.5C 86.5519,51.9367 87.7186,54.9367 90,57.5C 90.4986,61.1516 90.6653,64.8183 90.5,68.5C 90.3713,70.2161 90.038,71.8828 89.5,73.5C 89.1667,74.1667 88.8333,74.8333 88.5,75.5C 88.254,72.7067 88.0873,69.7067 88,66.5C 86.6667,65.8333 85.6667,64.8333 85,63.5C 84.6667,64.1667 84.3333,64.8333 84,65.5C 83.8138,62.9644 83.3138,60.631 82.5,58.5C 80.735,55.5512 78.4017,54.8846 75.5,56.5C 74.8333,56.5 74.5,56.8333 74.5,57.5C 72.8159,58.7112 70.9825,58.7112 69,57.5C 67.0653,55.8978 64.8987,54.7311 62.5,54C 63.448,53.5172 64.448,53.3505 65.5,53.5C 65.5,52.5 65.5,51.5 65.5,50.5C 63.1856,49.318 60.8523,47.9847 58.5,46.5C 59.8333,45.8333 61.1667,45.1667 62.5,44.5C 62.3764,43.8933 62.0431,43.56 61.5,43.5C 61.5,42.8333 61.1667,42.5 60.5,42.5C 59.5,41.8333 58.5,41.1667 57.5,40.5C 58.5137,39.3263 59.847,38.6596 61.5,38.5C 63.8695,38.1489 66.2028,37.9822 68.5,38C 67.5842,38.2784 66.9175,38.7784 66.5,39.5 Z"/></g>
<g><path style="opacity:1" fill="#556a84" d="M 75.5,48.5 C 76.3864,47.2241 77.3864,47.2241 78.5,48.5C 77.5754,49.5624 76.5754,49.5624 75.5,48.5 Z"/></g>
<g><path style="opacity:1" fill="#718aa6" d="M 66.5,39.5 C 67.5,39.5 68.5,39.5 69.5,39.5C 68.7399,41.9845 67.7399,41.9845 66.5,39.5 Z"/></g>
<g><path style="opacity:1" fill="#bec1c3" d="M 95.5,54.5 C 95.5,53.8333 95.5,53.1667 95.5,52.5C 98.476,51.7733 98.976,52.7733 97,55.5C 96.6174,54.944 96.1174,54.6107 95.5,54.5 Z"/></g>
<g><path style="opacity:1" fill="#637082" d="M 68.5,50.5 C 71.9496,49.7564 73.6162,51.0897 73.5,54.5C 70.6333,54.6308 68.9666,53.2974 68.5,50.5 Z"/></g>
<g><path style="opacity:1" fill="#0c0d17" d="M 38.5,31.5 C 39.4013,32.2905 40.0679,33.2905 40.5,34.5C 40.0825,35.2216 39.4158,35.7216 38.5,36C 40.4257,36.4224 41.4257,37.5891 41.5,39.5C 42.1667,40.8333 42.8333,42.1667 43.5,43.5C 42.1667,45.8333 40.8333,48.1667 39.5,50.5C 33.1742,64.811 36.1742,76.9776 48.5,87C 51.3271,88.6636 54.3271,89.8303 57.5,90.5C 66.6668,92.2271 75.0001,90.2271 82.5,84.5C 83.4511,85.9187 83.7845,87.5853 83.5,89.5C 82.7109,89.7828 82.0442,90.2828 81.5,91C 83.1545,91.6077 84.8211,92.1077 86.5,92.5C 87.2389,92.369 87.9056,92.5357 88.5,93C 87.3157,94.1455 87.3157,95.3121 88.5,96.5C 79.6281,102.887 69.6281,105.553 58.5,104.5C 32.5821,98.4102 20.7488,82.0769 23,55.5C 23.977,53.26 24.477,50.9267 24.5,48.5C 27.9721,41.9132 32.6387,36.2465 38.5,31.5 Z"/></g>
<g><path style="opacity:1" fill="#989ba1" d="M 29.5,51.5 C 32.8606,52.2032 33.1939,53.5365 30.5,55.5C 28.3576,54.5629 28.0243,53.2296 29.5,51.5 Z"/></g>
<g><path style="opacity:1" fill="#686f7e" d="M 33.5,45.5 C 34.1667,45.8333 34.8333,46.1667 35.5,46.5C 34.6987,48.7929 34.032,48.4596 33.5,45.5 Z"/></g>
<g><path style="opacity:1" fill="#dadcda" d="M 35.5,46.5 C 34.8333,46.1667 34.1667,45.8333 33.5,45.5C 32.7109,45.2172 32.0442,44.7172 31.5,44C 33.5,40.6667 35.5,40.6667 37.5,44C 36.6195,44.7083 35.9528,45.5416 35.5,46.5 Z"/></g>
<g><path style="opacity:1" fill="#1c283d" d="M 82.5,58.5 C 82.8432,60.4832 82.1765,61.8166 80.5,62.5C 79.2886,60.0502 77.622,58.0502 75.5,56.5C 78.4017,54.8846 80.735,55.5512 82.5,58.5 Z"/></g>
<g><path style="opacity:1" fill="#0e1221" d="M 94.5,45.5 C 96.5,45.5 98.5,45.5 100.5,45.5C 104.571,52.51 106.238,60.1766 105.5,68.5C 105.167,68.5 104.833,68.5 104.5,68.5C 104.663,66.1432 104.497,63.8098 104,61.5C 103.768,62.7375 103.268,63.7375 102.5,64.5C 102.5,63.1667 101.833,62.5 100.5,62.5C 99.8333,62.5 99.5,62.1667 99.5,61.5C 98.8333,58.8333 98.1667,58.8333 97.5,61.5C 93.8076,63.6414 94.4742,64.9747 99.5,65.5C 99.4828,67.5648 99.1495,69.5648 98.5,71.5C 96.6783,70.5714 95.3449,71.2381 94.5,73.5C 93.0267,72.9285 91.36,72.9285 89.5,73.5C 90.038,71.8828 90.3713,70.2161 90.5,68.5C 91.4345,67.4324 91.7678,66.099 91.5,64.5C 92.3227,61.023 92.8227,57.3563 93,53.5C 93.6708,54.2524 94.5041,54.5858 95.5,54.5C 96.1174,54.6107 96.6174,54.944 97,55.5C 98.976,52.7733 98.476,51.7733 95.5,52.5C 93.744,51.4479 93.0773,49.7812 93.5,47.5C 93.3284,46.5084 93.6618,45.8417 94.5,45.5 Z"/></g>
<g><path style="opacity:1" fill="#495972" d="M 24.5,48.5 C 23.8333,49.1667 23.1667,49.8333 22.5,50.5C 20.3833,56.1775 19.2167,62.1775 19,68.5C 18.7216,67.5842 18.2216,66.9175 17.5,66.5C 17.756,62.7307 17.4227,59.0641 16.5,55.5C 16.5651,52.5718 17.2318,49.9052 18.5,47.5C 19.1894,48.7736 20.0228,48.7736 21,47.5C 21.3333,48.1667 21.6667,48.8333 22,49.5C 22.6667,48.1667 23.3333,46.8333 24,45.5C 24.4828,46.448 24.6495,47.448 24.5,48.5 Z"/></g>
<g><path style="opacity:1" fill="#506177" d="M 75.5,56.5 C 77.622,58.0502 79.2886,60.0502 80.5,62.5C 77.865,61.5265 75.865,59.8598 74.5,57.5C 74.5,56.8333 74.8333,56.5 75.5,56.5 Z"/></g>
<g><path style="opacity:1" fill="#59697f" d="M 85.5,59.5 C 87.3464,59.2222 88.6798,59.8888 89.5,61.5C 87.1671,62.9415 85.8338,62.2748 85.5,59.5 Z"/></g>
<g><path style="opacity:1" fill="#7e7f86" d="M 99.5,61.5 C 98.8333,61.5 98.1667,61.5 97.5,61.5C 98.1667,58.8333 98.8333,58.8333 99.5,61.5 Z"/></g>
<g><path style="opacity:1" fill="#ced0ce" d="M 28.5,59.5 C 29.4793,60.7653 30.4793,62.0986 31.5,63.5C 30.4688,64.7003 29.6355,66.0337 29,67.5C 28.5604,65.9238 27.727,64.5904 26.5,63.5C 27.6302,62.3777 28.2969,61.0443 28.5,59.5 Z"/></g>
<g><path style="opacity:1" fill="#0c0d17" d="M 104.5,68.5 C 103.299,80.2405 97.9653,89.5739 88.5,96.5C 87.3157,95.3121 87.3157,94.1455 88.5,93C 87.9056,92.5357 87.2389,92.369 86.5,92.5C 86.9175,91.7784 87.5842,91.2784 88.5,91C 87.3333,89.8333 86.1667,88.6667 85,87.5C 84.7216,88.4158 84.2216,89.0825 83.5,89.5C 83.7845,87.5853 83.4511,85.9187 82.5,84.5C 82.8333,83.8333 83.1667,83.1667 83.5,82.5C 84.5,82.1667 85.1667,81.5 85.5,80.5C 86.7515,78.9991 87.7515,77.3325 88.5,75.5C 88.8333,74.8333 89.1667,74.1667 89.5,73.5C 91.36,72.9285 93.0267,72.9285 94.5,73.5C 96.8722,75.1478 98.2056,74.4811 98.5,71.5C 99.1495,69.5648 99.4828,67.5648 99.5,65.5C 99.5,64.8333 99.8333,64.5 100.5,64.5C 101.167,64.5 101.833,64.5 102.5,64.5C 103.268,63.7375 103.768,62.7375 104,61.5C 104.497,63.8098 104.663,66.1432 104.5,68.5 Z"/></g>
<g><path style="opacity:1" fill="#717178" d="M 100.5,62.5 C 101.833,62.5 102.5,63.1667 102.5,64.5C 101.833,64.5 101.167,64.5 100.5,64.5C 100.5,63.8333 100.5,63.1667 100.5,62.5 Z"/></g>
<g><path style="opacity:1" fill="#c6c9c8" d="M 97.5,61.5 C 98.1667,61.5 98.8333,61.5 99.5,61.5C 99.5,62.1667 99.8333,62.5 100.5,62.5C 100.5,63.1667 100.5,63.8333 100.5,64.5C 99.8333,64.5 99.5,64.8333 99.5,65.5C 94.4742,64.9747 93.8076,63.6414 97.5,61.5 Z"/></g>
<g><path style="opacity:1" fill="#3a4157" d="M 71.5,66.5 C 71.5,67.1667 71.1667,67.5 70.5,67.5C 69.2267,66.9232 69.2267,66.2565 70.5,65.5C 71.1067,65.6236 71.44,65.9569 71.5,66.5 Z"/></g>
<g><path style="opacity:1" fill="#a5b0b9" d="M 53.5,51.5 C 54.1614,52.7175 54.8281,54.0508 55.5,55.5C 57.7534,56.2531 59.5867,57.5864 61,59.5C 62.9435,63.7772 65.9435,67.1106 70,69.5C 71.6836,69.3166 71.8502,68.6499 70.5,67.5C 71.1667,67.5 71.5,67.1667 71.5,66.5C 72.7791,67.968 74.4458,68.6347 76.5,68.5C 76.1667,69.1667 75.8333,69.8333 75.5,70.5C 74.596,71.209 74.2627,72.209 74.5,73.5C 73.596,74.209 73.2627,75.209 73.5,76.5C 72.234,75.9101 70.9007,75.4101 69.5,75C 71.9316,73.9125 71.5983,73.4125 68.5,73.5C 68.5,72.5 68.5,71.5 68.5,70.5C 64.9007,70.2619 64.5673,71.2619 67.5,73.5C 67.1667,73.8333 66.8333,74.1667 66.5,74.5C 64.6954,72.4066 62.3621,71.2399 59.5,71C 55.6669,67.0334 51.8336,63.2 48,59.5C 47.8195,62.6946 47.3195,65.6946 46.5,68.5C 44.8677,63.2369 45.201,58.2369 47.5,53.5C 47.369,54.2389 47.5357,54.9056 48,55.5C 48.3175,51.4536 50.1509,50.1202 53.5,51.5 Z"/></g>
<g><path style="opacity:1" fill="#273044" d="M 52.5,58.5 C 56.5,57.8333 58.1667,59.5 57.5,63.5C 54.7361,63.0012 53.0695,61.3345 52.5,58.5 Z"/></g>
<g><path style="opacity:1" fill="#324157" d="M 53.5,51.5 C 53.0527,53.9732 52.0527,54.1399 50.5,52C 51.448,51.5172 52.448,51.3505 53.5,51.5 Z"/></g>
<g><path style="opacity:1" fill="#101524" d="M 76.5,68.5 C 81.7176,68.0561 84.3843,70.3894 84.5,75.5C 83.8333,75.8333 83.1667,76.1667 82.5,76.5C 81.0502,73.3776 78.7169,71.3776 75.5,70.5C 75.8333,69.8333 76.1667,69.1667 76.5,68.5 Z"/></g>
<g><path style="opacity:1" fill="#434d5f" d="M 60.5,66.5 C 63.5,66.1667 64.8333,67.5 64.5,70.5C 61.2043,70.5499 59.871,69.2166 60.5,66.5 Z"/></g>
<g><path style="opacity:1" fill="#424e62" d="M 39.5,50.5 C 39.5,51.1667 39.8333,51.5 40.5,51.5C 37.9644,56.3076 37.9644,61.1409 40.5,66C 40.4606,67.8939 39.7939,68.8939 38.5,69C 39.6677,73.1682 41.5011,77.0016 44,80.5C 44.5785,76.6137 45.4119,76.6137 46.5,80.5C 45.3318,81.9056 45.6652,83.0723 47.5,84C 50.7667,86.1297 54.1,87.963 57.5,89.5C 57.5,89.8333 57.5,90.1667 57.5,90.5C 54.3271,89.8303 51.3271,88.6636 48.5,87C 36.1742,76.9776 33.1742,64.811 39.5,50.5 Z"/></g>
<g><path style="opacity:1" fill="#b5babc" d="M 29.5,71.5 C 32.6741,71.9522 33.0075,72.9522 30.5,74.5C 28.4807,73.8671 28.1474,72.8671 29.5,71.5 Z"/></g>
<g><path style="opacity:1" fill="#808f9e" d="M 73.5,76.5 C 76.0213,79.7121 79.0213,80.2121 82.5,78C 79.0324,77.7701 76.3658,76.2701 74.5,73.5C 77.5525,73.5721 80.2192,74.5721 82.5,76.5C 83.1667,76.1667 83.8333,75.8333 84.5,75.5C 84.7135,77.1439 84.3802,78.6439 83.5,80C 84.0944,80.4643 84.7611,80.631 85.5,80.5C 85.1667,81.5 84.5,82.1667 83.5,82.5C 77.7939,80.7548 72.1272,79.0881 66.5,77.5C 66.5,76.8333 66.1667,76.5 65.5,76.5C 64.4324,75.5655 63.099,75.2322 61.5,75.5C 60.8595,73.668 59.8595,73.3347 58.5,74.5C 58.8555,75.5223 59.5222,76.189 60.5,76.5C 58.6431,77.7652 56.9764,77.4318 55.5,75.5C 54.6136,74.2241 53.6136,74.2241 52.5,75.5C 52.8555,76.5223 53.5222,77.189 54.5,77.5C 54.5858,78.4959 54.2524,79.3292 53.5,80C 56.228,82.3922 59.228,84.3922 62.5,86C 62.2716,86.3988 61.9382,86.5654 61.5,86.5C 58.3111,85.4863 55.4778,83.8196 53,81.5C 49.7678,77.7024 47.6012,73.369 46.5,68.5C 47.3195,65.6946 47.8195,62.6946 48,59.5C 51.8336,63.2 55.6669,67.0334 59.5,71C 62.3621,71.2399 64.6954,72.4066 66.5,74.5C 66.8333,74.1667 67.1667,73.8333 67.5,73.5C 64.5673,71.2619 64.9007,70.2619 68.5,70.5C 68.5,71.5 68.5,72.5 68.5,73.5C 71.5983,73.4125 71.9316,73.9125 69.5,75C 70.9007,75.4101 72.234,75.9101 73.5,76.5 Z"/></g>
<g><path style="opacity:1" fill="#38475f" d="M 75.5,70.5 C 78.7169,71.3776 81.0502,73.3776 82.5,76.5C 80.2192,74.5721 77.5525,73.5721 74.5,73.5C 74.2627,72.209 74.596,71.209 75.5,70.5 Z"/></g>
<g><path style="opacity:1" fill="#a2a5ab" d="M 98.5,71.5 C 98.2056,74.4811 96.8722,75.1478 94.5,73.5C 95.3449,71.2381 96.6783,70.5714 98.5,71.5 Z"/></g>
<g><path style="opacity:1" fill="#11121d" d="M 46.5,44.5 C 47.5,45.5 48.5,46.5 49.5,47.5C 48.6373,49.4214 47.9707,51.4214 47.5,53.5C 45.201,58.2369 44.8677,63.2369 46.5,68.5C 47.6012,73.369 49.7678,77.7024 53,81.5C 55.4778,83.8196 58.3111,85.4863 61.5,86.5C 63.2774,87.6005 65.2774,88.4338 67.5,89C 64.1832,89.4983 60.8499,89.665 57.5,89.5C 54.1,87.963 50.7667,86.1297 47.5,84C 45.6652,83.0723 45.3318,81.9056 46.5,80.5C 45.4119,76.6137 44.5785,76.6137 44,80.5C 41.5011,77.0016 39.6677,73.1682 38.5,69C 39.7939,68.8939 40.4606,67.8939 40.5,66C 37.9644,61.1409 37.9644,56.3076 40.5,51.5C 41.7997,48.5677 43.7997,46.2344 46.5,44.5 Z"/></g>
<g><path style="opacity:1" fill="#6b6e78" d="M 41.5,69.5 C 43.337,69.6395 43.6704,70.3061 42.5,71.5C 41.7025,71.0431 41.3691,70.3764 41.5,69.5 Z"/></g>
<g><path style="opacity:1" fill="#8f99a2" d="M 40.5,54.5 C 41.9778,54.238 43.3112,54.5713 44.5,55.5C 43.6798,57.1112 42.3464,57.7778 40.5,57.5C 40.5,56.5 40.5,55.5 40.5,54.5 Z"/></g>
<g><path style="opacity:1" fill="#2b3347" d="M 61.5,75.5 C 61.5,76.1667 61.1667,76.5 60.5,76.5C 59.5222,76.189 58.8555,75.5223 58.5,74.5C 59.8595,73.3347 60.8595,73.668 61.5,75.5 Z"/></g>
<g><path style="opacity:1" fill="#6b7480" d="M 107.5,57.5 C 107.5,58.5 107.5,59.5 107.5,60.5C 107.757,67.2055 107.424,73.8722 106.5,80.5C 106.747,81.7133 107.414,82.38 108.5,82.5C 107.833,83.8333 107.167,85.1667 106.5,86.5C 105.504,86.4142 104.671,86.7476 104,87.5C 103.667,85.1667 103.333,82.8333 103,80.5C 101.473,83.5531 99.9734,86.5531 98.5,89.5C 87.3576,102.752 73.3576,108.086 56.5,105.5C 57.4916,105.672 58.1583,105.338 58.5,104.5C 69.6281,105.553 79.6281,102.887 88.5,96.5C 97.9653,89.5739 103.299,80.2405 104.5,68.5C 104.833,68.5 105.167,68.5 105.5,68.5C 106.229,65.4167 106.896,61.7501 107.5,57.5 Z"/></g>
<g><path style="opacity:1" fill="#1b2539" d="M 55.5,75.5 C 55.6716,76.4916 55.3382,77.1583 54.5,77.5C 53.5222,77.189 52.8555,76.5223 52.5,75.5C 53.6136,74.2241 54.6136,74.2241 55.5,75.5 Z"/></g>
<g><path style="opacity:1" fill="#151a29" d="M 65.5,76.5 C 66.1667,76.5 66.5,76.8333 66.5,77.5C 65.9467,79.6569 64.9467,79.4903 63.5,77C 64.0944,76.5357 64.7611,76.369 65.5,76.5 Z"/></g>
<g><path style="opacity:1" fill="#e0e4e4" d="M 74.5,73.5 C 76.3658,76.2701 79.0324,77.7701 82.5,78C 79.0213,80.2121 76.0213,79.7121 73.5,76.5C 73.2627,75.209 73.596,74.209 74.5,73.5 Z"/></g>
<g><path style="opacity:0.984" fill="#9aa5af" d="M 107.5,60.5 C 108.117,60.6107 108.617,60.944 109,61.5C 109.631,65.8574 109.465,70.1907 108.5,74.5C 108.64,76.0296 109.307,77.0296 110.5,77.5C 109.559,79.0495 108.893,80.7162 108.5,82.5C 107.414,82.38 106.747,81.7133 106.5,80.5C 107.424,73.8722 107.757,67.2055 107.5,60.5 Z"/></g>
<g><path style="opacity:1" fill="#868b93" d="M 24.5,48.5 C 24.477,50.9267 23.977,53.26 23,55.5C 20.7488,82.0769 32.5821,98.4102 58.5,104.5C 58.1583,105.338 57.4916,105.672 56.5,105.5C 46.503,103.671 38.1697,99.0048 31.5,91.5C 21.7231,79.4661 18.7231,65.7995 22.5,50.5C 23.1667,49.8333 23.8333,49.1667 24.5,48.5 Z"/></g>
<g><path style="opacity:1" fill="#cccecc" d="M 92.5,77.5 C 93.2189,79.0913 94.2189,80.5913 95.5,82C 94.2986,82.9025 93.4652,84.0692 93,85.5C 92.5,83.6667 91.3333,82.5 89.5,82C 91.3757,81.0816 92.3757,79.5816 92.5,77.5 Z"/></g>
<g><path style="opacity:0.424" fill="#172237" d="M 16.5,55.5 C 17.4227,59.0641 17.756,62.7307 17.5,66.5C 18.2915,74.7082 20.7915,82.3749 25,89.5C 28.7365,93.7267 32.2365,98.06 35.5,102.5C 19.9549,90.4282 13.6216,74.7616 16.5,55.5 Z"/></g>
<g><path style="opacity:1" fill="#dcdeda" d="M 35.5,84.5 C 34.8333,84.1667 34.1667,83.8333 33.5,83.5C 32.7109,83.2172 32.0442,82.7172 31.5,82C 32.646,81.3551 33.646,80.5217 34.5,79.5C 35.354,80.5217 36.354,81.3551 37.5,82C 36.6195,82.7083 35.9528,83.5416 35.5,84.5 Z"/></g>
<g><path style="opacity:1" fill="#6b7a8c" d="M 55.5,75.5 C 56.9764,77.4318 58.6431,77.7652 60.5,76.5C 61.1667,76.5 61.5,76.1667 61.5,75.5C 63.099,75.2322 64.4324,75.5655 65.5,76.5C 64.7611,76.369 64.0944,76.5357 63.5,77C 64.9467,79.4903 65.9467,79.6569 66.5,77.5C 72.1272,79.0881 77.7939,80.7548 83.5,82.5C 83.1667,83.1667 82.8333,83.8333 82.5,84.5C 75.0001,90.2271 66.6668,92.2271 57.5,90.5C 57.5,90.1667 57.5,89.8333 57.5,89.5C 60.8499,89.665 64.1832,89.4983 67.5,89C 65.2774,88.4338 63.2774,87.6005 61.5,86.5C 61.9382,86.5654 62.2716,86.3988 62.5,86C 59.228,84.3922 56.228,82.3922 53.5,80C 54.2524,79.3292 54.5858,78.4959 54.5,77.5C 55.3382,77.1583 55.6716,76.4916 55.5,75.5 Z"/></g>
<g><path style="opacity:1" fill="#141a2c" d="M 68.5,81.5 C 71.5,81.1667 72.8333,82.5 72.5,85.5C 69.2043,85.5499 67.871,84.2166 68.5,81.5 Z"/></g>
<g><path style="opacity:1" fill="#606672" d="M 33.5,83.5 C 34.1667,83.8333 34.8333,84.1667 35.5,84.5C 34.6987,86.7929 34.032,86.4596 33.5,83.5 Z"/></g>
<g><path style="opacity:1" fill="#29354c" d="M 22.5,50.5 C 18.7231,65.7995 21.7231,79.4661 31.5,91.5C 30.4265,92.2506 30.2599,93.2506 31,94.5C 35.8637,99.5532 41.3637,103.553 47.5,106.5C 46.5084,106.328 45.8417,106.662 45.5,107.5C 41.8832,106.358 38.5498,104.692 35.5,102.5C 32.2365,98.06 28.7365,93.7267 25,89.5C 20.7915,82.3749 18.2915,74.7082 17.5,66.5C 18.2216,66.9175 18.7216,67.5842 19,68.5C 19.2167,62.1775 20.3833,56.1775 22.5,50.5 Z"/></g>
<g><path style="opacity:1" fill="#dadbd7" d="M 41.5,87.5 C 45.4828,89.268 45.8162,90.9346 42.5,92.5C 41.2054,91.9017 39.8721,91.4017 38.5,91C 40.0629,90.2411 41.0629,89.0744 41.5,87.5 Z"/></g>
<g><path style="opacity:1" fill="#dadbd8" d="M 86.5,92.5 C 84.8211,92.1077 83.1545,91.6077 81.5,91C 82.0442,90.2828 82.7109,89.7828 83.5,89.5C 84.2216,89.0825 84.7216,88.4158 85,87.5C 86.1667,88.6667 87.3333,89.8333 88.5,91C 87.5842,91.2784 86.9175,91.7784 86.5,92.5 Z"/></g>
<g><path style="opacity:0.973" fill="#37475d" d="M 106.5,86.5 C 103.848,90.4819 100.848,94.1486 97.5,97.5C 92.5557,99.0093 92.2224,98.176 96.5,95C 96.1667,94.6667 95.8333,94.3333 95.5,94C 97.1412,92.871 98.1412,91.371 98.5,89.5C 99.9734,86.5531 101.473,83.5531 103,80.5C 103.333,82.8333 103.667,85.1667 104,87.5C 104.671,86.7476 105.504,86.4142 106.5,86.5 Z"/></g>
<g><path style="opacity:1" fill="#182137" d="M 98.5,89.5 C 98.1412,91.371 97.1412,92.871 95.5,94C 95.8333,94.3333 96.1667,94.6667 96.5,95C 92.2224,98.176 92.5557,99.0093 97.5,97.5C 95.5574,100.471 92.8908,102.471 89.5,103.5C 89.2648,102.903 88.7648,102.57 88,102.5C 84.1253,104.361 80.2919,106.028 76.5,107.5C 66.7216,110.369 57.0549,110.035 47.5,106.5C 41.3637,103.553 35.8637,99.5532 31,94.5C 30.2599,93.2506 30.4265,92.2506 31.5,91.5C 38.1697,99.0048 46.503,103.671 56.5,105.5C 73.3576,108.086 87.3576,102.752 98.5,89.5 Z"/></g>
<g><path style="opacity:1" fill="#ced0cd" d="M 63.5,94.5 C 64.2189,96.0913 65.2189,97.5913 66.5,99C 65.2986,99.9025 64.4652,101.069 64,102.5C 63.3483,100.277 61.8483,99.1102 59.5,99C 61.6355,98.1237 62.9688,96.6237 63.5,94.5 Z"/></g>
<g><path style="opacity:1" fill="#b9bbbd" d="M 75.5,94.5 C 77.8519,95.5426 78.0185,96.8759 76,98.5C 74.2317,97.3181 74.0651,95.9848 75.5,94.5 Z"/></g>
<g><path style="opacity:1" fill="#979a9e" d="M 50.5,94.5 C 53.8606,95.2032 54.1939,96.5365 51.5,98.5C 49.3576,97.5629 49.0243,96.2296 50.5,94.5 Z"/></g>
<g><path style="opacity:0.586" fill="#3b4b62" d="M 89.5,103.5 C 86.9922,105.924 83.9922,107.59 80.5,108.5C 79.4324,107.566 78.099,107.232 76.5,107.5C 80.2919,106.028 84.1253,104.361 88,102.5C 88.7648,102.57 89.2648,102.903 89.5,103.5 Z"/></g>
<g><path style="opacity:0.516" fill="#63748c" d="M 47.5,106.5 C 57.0549,110.035 66.7216,110.369 76.5,107.5C 78.099,107.232 79.4324,107.566 80.5,108.5C 68.5932,112.773 56.9266,112.44 45.5,107.5C 45.8417,106.662 46.5084,106.328 47.5,106.5 Z"/></g>
</svg>
